<?xml version="1.0" encoding="UTF-8" standalone="no"?>
<!-- Created with Inkscape (http://www.inkscape.org/) -->

<svg
   xmlns:dc="http://purl.org/dc/elements/1.1/"
   xmlns:cc="http://creativecommons.org/ns#"
   xmlns:rdf="http://www.w3.org/1999/02/22-rdf-syntax-ns#"
   xmlns:svg="http://www.w3.org/2000/svg"
   xmlns="http://www.w3.org/2000/svg"
   xmlns:sodipodi="http://sodipodi.sourceforge.net/DTD/sodipodi-0.dtd"
   xmlns:inkscape="http://www.inkscape.org/namespaces/inkscape"
   version="1.1"
   id="svg2"
   xml:space="preserve"
   width="795.59613"
   height="205.56963"
   viewBox="0 0 795.59609 205.56962"
   sodipodi:docname="TEFWAY.svg"
   inkscape:version="0.92.5 (2060ec1f9f, 2020-04-08)"><metadata
     id="metadata8"><rdf:RDF><cc:Work
         rdf:about=""><dc:format>image/svg+xml</dc:format><dc:type
           rdf:resource="http://purl.org/dc/dcmitype/StillImage" /><dc:title /></cc:Work></rdf:RDF></metadata><defs
     id="defs6"><clipPath
       clipPathUnits="userSpaceOnUse"
       id="clipPath18"><path
         d="M 0,460 H 800 V 0 H 0 Z"
         id="path16"
         inkscape:connector-curvature="0" /></clipPath></defs><sodipodi:namedview
     pagecolor="#ffffff"
     bordercolor="#666666"
     borderopacity="1"
     objecttolerance="10"
     gridtolerance="10"
     guidetolerance="10"
     inkscape:pageopacity="0"
     inkscape:pageshadow="2"
     inkscape:window-width="1920"
     inkscape:window-height="1023"
     id="namedview4"
     showgrid="false"
     inkscape:zoom="1.0883296"
     inkscape:cx="353.79485"
     inkscape:cy="76.424922"
     inkscape:window-x="0"
     inkscape:window-y="0"
     inkscape:window-maximized="1"
     inkscape:current-layer="g10" /><g
     id="g10"
     inkscape:groupmode="layer"
     inkscape:label="TEFWAY-LOGOTIPO (1)"
     transform="matrix(1.3333333,0,0,-1.3333333,-135.53504,409.45189)"><g
       id="g12"><g
         id="g14"
         clip-path="url(#clipPath18)"><g
           id="g20"
           transform="translate(282.6629,234.2557)"><path
             d="m 0,0 v -32.626 c 0.292,-1.17 0.828,-2.245 1.61,-3.219 0.681,-0.781 1.632,-1.513 2.852,-2.194 1.219,-0.684 2.803,-1.024 4.755,-1.024 h 11.12 V -56.766 H 2.488 c -3.804,0.388 -7.22,1.463 -10.241,3.219 -2.538,1.462 -4.854,3.632 -6.951,6.51 -2.098,2.876 -3.145,6.851 -3.145,11.924 V 42.2 H 0 V 17.41 H 16.825 V 0 Z"
             style="fill:#164194;fill-opacity:1;fill-rule:nonzero;stroke:none"
             id="path22"
             inkscape:connector-curvature="0" /></g><g
           id="g24"
           transform="translate(363.2984,224.0141)"><path
             d="m 0,0 c -0.489,1.559 -1.097,3.12 -1.828,4.682 -0.733,1.559 -1.733,2.974 -3,4.242 -1.268,1.267 -2.78,2.269 -4.535,3 -1.756,0.731 -3.804,1.097 -6.145,1.097 -2.341,0 -4.389,-0.366 -6.145,-1.097 -1.755,-0.731 -3.269,-1.733 -4.535,-3 C -27.457,7.656 -28.481,6.241 -29.26,4.682 -30.042,3.12 -30.628,1.559 -31.016,0 Z m 18.435,0 c 0.194,-1.463 0.365,-2.976 0.512,-4.535 0.146,-1.562 0.219,-3.219 0.219,-4.975 v -2.633 H -32.04 c 0.194,-1.66 0.439,-3.342 0.731,-5.048 0.293,-1.707 0.78,-3.39 1.463,-5.047 1.073,-2.538 2.73,-4.78 4.974,-6.73 2.243,-1.953 5.364,-2.926 9.364,-2.926 3.999,0 7.119,0.973 9.363,2.926 2.243,1.95 3.901,4.192 4.974,6.73 h 19.02 c -0.782,-3.415 -1.878,-6.389 -3.291,-8.924 -1.415,-2.538 -2.977,-4.733 -4.682,-6.584 -1.707,-1.854 -3.537,-3.391 -5.486,-4.609 -1.953,-1.22 -3.855,-2.22 -5.706,-2.999 -4.488,-1.756 -9.217,-2.633 -14.192,-2.633 -6.536,0.098 -12.34,1.463 -17.411,4.096 -2.146,1.17 -4.268,2.656 -6.363,4.462 -2.099,1.804 -3.95,4.072 -5.56,6.803 -1.61,2.73 -2.903,5.999 -3.877,9.803 -0.976,3.804 -1.463,8.241 -1.463,13.313 0,5.071 0.487,9.51 1.463,13.314 0.974,3.804 2.267,7.096 3.877,9.876 1.61,2.779 3.461,5.095 5.56,6.949 2.095,1.852 4.217,3.365 6.363,4.535 5.071,2.73 10.875,4.193 17.411,4.389 5.363,-0.196 10.388,-1.316 15.069,-3.365 1.951,-0.877 3.926,-2.025 5.925,-3.438 1.999,-1.415 3.853,-3.17 5.56,-5.266 1.706,-2.099 3.218,-4.586 4.536,-7.462 C 16.898,7.144 17.849,3.804 18.435,0"
             style="fill:#164194;fill-opacity:1;fill-rule:nonzero;stroke:none"
             id="path26"
             inkscape:connector-curvature="0" /></g><g
           id="g28"
           transform="translate(426.226,246.3987)"><path
             d="m 0,0 v -16.532 h -15.362 v -52.377 h -17.41 V 8.193 c 0,5.071 1.047,9.046 3.145,11.923 2.097,2.877 4.412,5.048 6.949,6.511 3.023,1.756 6.438,2.828 10.242,3.219 H 8.047 V 13.314 H -5.706 c -2.341,0 -4.147,-0.391 -5.413,-1.171 -1.27,-0.781 -2.246,-1.66 -2.926,-2.633 -0.782,-1.075 -1.222,-2.341 -1.317,-3.804 V 0 Z"
             style="fill:#164194;fill-opacity:1;fill-rule:nonzero;stroke:none"
             id="path30"
             inkscape:connector-curvature="0" /></g><g
           id="g32"
           transform="translate(524.9797,251.6654)"><path
             d="M 0,0 -11.996,-55.449 -23.994,0 h -1.17 -15.655 -1.17 L -53.985,-55.449 -65.983,0 h -17.995 l 17.995,-74.176 h 11.998 11.996 l 8.998,39.668 8.997,-39.668 H -11.996 0 L 17.996,0 Z"
             style="fill:#164194;fill-opacity:1;fill-rule:nonzero;stroke:none"
             id="path34"
             inkscape:connector-curvature="0" /></g><g
           id="g36"
           transform="translate(585.11,236.3038)"><path
             d="m 0,0 c -3.609,0 -6.51,-0.731 -8.704,-2.195 -2.196,-1.463 -3.878,-3.291 -5.049,-5.486 -1.17,-2.194 -1.952,-4.56 -2.341,-7.096 -0.39,-2.537 -0.584,-4.878 -0.584,-7.022 0,-2.147 0.194,-4.488 0.584,-7.023 0.389,-2.538 1.171,-4.901 2.341,-7.096 1.171,-2.194 2.853,-4.023 5.049,-5.486 2.194,-1.463 5.095,-2.195 8.704,-2.195 3.607,0 6.511,0.732 8.705,2.195 2.195,1.463 3.9,3.292 5.121,5.486 1.219,2.195 2.023,4.558 2.414,7.096 0.388,2.535 0.585,4.876 0.585,7.023 0,2.633 -0.172,5.241 -0.512,7.827 -0.342,2.583 -1.075,4.924 -2.194,7.022 -1.123,2.097 -2.805,3.779 -5.047,5.048 C 6.826,-0.636 3.804,0 0,0 M 34.236,-58.814 H 16.825 v 10.241 l 3.219,4.243 c -1.659,-4.096 -3.756,-7.219 -6.291,-9.364 -2.538,-2.146 -5.025,-3.707 -7.461,-4.681 -2.831,-1.072 -5.757,-1.706 -8.779,-1.902 -6.049,0.098 -11.411,1.463 -16.093,4.096 -2.049,1.171 -4.024,2.656 -5.926,4.463 -1.902,1.803 -3.609,4.071 -5.121,6.803 -1.513,2.729 -2.731,5.998 -3.657,9.802 -0.928,3.804 -1.39,8.241 -1.39,13.314 0,5.07 0.487,9.509 1.463,13.313 0.974,3.804 2.268,7.096 3.878,9.876 1.608,2.78 3.46,5.095 5.559,6.949 2.096,1.852 4.218,3.365 6.364,4.535 5.07,2.73 10.875,4.193 17.41,4.39 6.145,0 11.362,-0.903 15.654,-2.707 4.291,-1.806 7.828,-4.389 10.608,-7.754 2.78,-3.365 4.802,-7.462 6.072,-12.289 1.266,-4.828 1.902,-10.315 1.902,-16.46 z"
             style="fill:#164194;fill-opacity:1;fill-rule:nonzero;stroke:none"
             id="path38"
             inkscape:connector-curvature="0" /></g><g
           id="g40"
           transform="translate(671.8674,167.3947)"><path
             d="m 0,0 c -1.074,-3.413 -2.683,-6.072 -4.828,-7.973 -2.146,-1.902 -4.34,-3.34 -6.584,-4.316 -2.537,-1.073 -5.266,-1.804 -8.192,-2.194 H -42.721 V 2.633 h 14.924 c 2.827,0 4.777,0.391 5.852,1.171 1.072,0.782 1.755,1.659 2.048,2.633 0.293,1.075 0.194,2.341 -0.293,3.804 l -23.847,74.03 h 17.995 L -8.778,26.92 8.486,84.271 h 17.995 z"
             style="fill:#164194;fill-opacity:1;fill-rule:nonzero;stroke:none"
             id="path42"
             inkscape:connector-curvature="0" /></g><g
           id="g44"
           transform="translate(169.6146,304.4794)"><path
             d="m 0,0 c -0.662,-1.436 -2.098,-3.355 -8.295,-4.105 -0.193,0.595 -1.194,1.679 -1.856,1.997 -0.966,0.463 -3.837,0.188 -5.497,0.093 -4.989,-1.576 -10.102,-3.554 -15.096,-5.933 -1.395,-1.076 -2.664,-2.284 -3.716,-3.621 -0.639,-0.813 -1.201,-1.671 -1.662,-2.573 -0.949,-1.858 -1.406,-3.657 -1.43,-5.389 0.246,-1.596 0.864,-3.129 1.809,-4.591 0.388,-0.559 0.822,-1.106 1.302,-1.643 0.113,-0.125 0.229,-0.249 0.346,-0.373 11.948,6.749 25.378,11.911 37.758,15.036 -0.561,2.304 -0.012,4.591 3.687,5.393 2.052,0.362 5.87,1.036 8.922,2.559 1.895,0.946 6.586,3.139 0.951,5.001 0.428,-0.125 -0.16,0.052 -0.541,0.178 C 12.655,2.901 6.744,2.789 -0.119,1.704 -0.173,1.587 -0.247,1.468 -0.338,1.348 0.12,0.973 0.233,0.505 0,0"
             style="fill:#164194;fill-opacity:1;fill-rule:nonzero;stroke:none"
             id="path46"
             inkscape:connector-curvature="0" /></g><g
           id="g48"
           transform="translate(227.978,200.9087)"><path
             d="m 0,0 c -0.66,-0.994 -1.33,-1.982 -1.93,-2.811 0.022,0.038 0.04,0.074 0.06,0.111 0.228,0.318 0.462,0.65 0.699,0.989 C -0.791,-1.16 -0.395,-0.583 0,0"
             style="fill:#144677;fill-opacity:1;fill-rule:nonzero;stroke:none"
             id="path50"
             inkscape:connector-curvature="0" /></g><g
           id="g52"
           transform="translate(101.6532,240.3903)"><path
             d="M 0,0 C 0.007,0.415 0.016,0.865 0.026,1.365 0.027,1.377 0.027,1.389 0.028,1.401 0.049,-0.765 0.064,-2.321 0.094,-3.573 0.026,-2.321 -0.011,-1.105 0,0"
             style="fill:#144677;fill-opacity:1;fill-rule:nonzero;stroke:none"
             id="path54"
             inkscape:connector-curvature="0" /></g><g
           id="g56"
           transform="translate(148.6084,180.2691)"><path
             d="m 0,0 c 8.251,-2.013 17.755,-3.416 25.955,-3.657 -0.708,0.308 -2.212,1.033 -2.806,1.395 C 19.269,0.1 19.719,4.551 24.527,9.163 15.798,9.705 6.843,10.951 -1.65,13.07 -3.559,8.257 -3.13,3.73 -0.094,0.024 -0.063,0.016 -0.032,0.008 0,0"
             style="fill:#164194;fill-opacity:1;fill-rule:nonzero;stroke:none"
             id="path58"
             inkscape:connector-curvature="0" /></g><g
           id="g60"
           transform="translate(126.645,200.7735)"><path
             d="m 0,0 c -6.972,3.607 -12.96,8.163 -17.334,13.819 0.179,-6.339 4.966,-14.837 4.942,-14.801 3.823,-5.005 8.987,-9.067 14.966,-12.3 0.01,-0.006 0.02,-0.011 0.03,-0.016 C 0.113,-9.279 -0.798,-4.788 0,0"
             style="fill:#164194;fill-opacity:1;fill-rule:nonzero;stroke:none"
             id="path62"
             inkscape:connector-curvature="0" /></g><g
           id="g64"
           transform="translate(130.8207,183.3416)"><path
             d="m 0,0 c -1.812,1.306 -3.56,2.699 -5.239,4.161 -2.066,1.799 -4.029,3.716 -5.876,5.739 -0.924,1.012 -1.818,2.05 -2.682,3.113 -0.443,0.546 -2.344,2.878 -2.771,3.437 -0.303,0.397 2.331,-2.378 3.324,-3.339 1.134,-1.095 2.291,-2.167 3.484,-3.198 2.513,-2.17 5.196,-4.171 8.123,-5.754 5.851,-3.163 12.479,-5.536 19.389,-7.222 8.546,-2.084 17.517,-3.12 25.975,-3.311 4.824,-0.109 9.477,0.057 13.791,0.459 -0.058,0.016 -0.111,0.032 -0.173,0.048 8.806,0.803 16.733,3.486 23.43,7.666 -0.277,-0.558 -0.551,-1.094 -1.388,-1.79 -0.292,-0.211 -0.584,-0.419 -0.875,-0.623 0.051,0.03 0.105,0.059 0.155,0.089 -0.068,-0.05 -0.137,-0.098 -0.203,-0.147 -0.454,-0.306 -0.959,-0.635 -1.469,-0.963 -0.484,-0.317 -0.968,-0.631 -1.414,-0.911 -0.076,-0.046 -0.15,-0.092 -0.228,-0.139 -0.041,-0.026 -0.085,-0.054 -0.125,-0.08 -0.855,-0.518 -1.981,-1.153 -2.917,-1.669 -0.038,-0.019 -0.077,-0.041 -0.116,-0.06 -0.181,-0.103 -0.347,-0.193 -0.505,-0.279 -0.704,-0.37 -1.493,-0.764 -2.13,-1.077 -0.112,-0.053 -0.23,-0.11 -0.354,-0.169 -0.03,-0.015 -0.06,-0.029 -0.091,-0.043 -0.008,-0.004 -0.014,-0.007 -0.022,-0.011 -0.687,-0.326 -1.472,-0.684 -2.325,-1.052 -0.094,-0.039 -0.192,-0.08 -0.296,-0.123 -0.082,-0.035 -0.158,-0.07 -0.232,-0.102 -0.59,-0.248 -1.167,-0.484 -1.697,-0.69 -0.206,-0.079 -0.431,-0.164 -0.698,-0.265 -0.027,-0.01 -0.051,-0.02 -0.077,-0.03 -0.239,-0.085 -0.494,-0.175 -0.754,-0.267 -0.674,-0.24 -1.168,-0.415 -1.559,-0.552 -0.638,-0.215 -1.248,-0.413 -1.854,-0.598 -0.147,-0.043 -0.307,-0.091 -0.488,-0.145 -0.184,-0.054 -0.346,-0.102 -0.494,-0.145 -0.426,-0.124 -0.887,-0.251 -1.365,-0.378 -0.11,-0.028 -0.229,-0.058 -0.358,-0.09 -0.062,-0.016 -0.12,-0.032 -0.176,-0.047 -0.677,-0.174 -1.338,-0.334 -1.981,-0.48 -0.017,-0.003 -0.032,-0.007 -0.05,-0.011 -0.913,-0.206 -1.263,-0.283 -2.151,-0.445 -0.138,-0.027 -0.266,-0.053 -0.384,-0.076 -0.506,-0.094 -0.997,-0.18 -1.47,-0.257 -0.095,-0.015 -0.192,-0.031 -0.301,-0.047 l -1.564,-0.228 c -9.78,-1.283 -20.052,-0.315 -30.543,2.864 -0.54,0.173 -1.066,0.348 -1.574,0.522 -0.105,0.036 -0.213,0.072 -0.315,0.108 l -0.838,0.301 c -0.906,0.358 -1.652,0.659 -2.316,0.933 -0.712,0.303 -1.434,0.623 -2.125,0.936 C 10.856,-6.323 10.61,-6.211 10.37,-6.1 6.729,-4.42 3.261,-2.35 0,0"
             style="fill:#008bd2;fill-opacity:1;fill-rule:nonzero;stroke:none"
             id="path66"
             inkscape:connector-curvature="0" /></g><g
           id="g68"
           transform="translate(237.1089,221.1198)"><path
             d="M 0,0 C 0.031,0.133 0.061,0.267 0.092,0.401 1.18,8.284 -32.239,7.079 -58.52,-4.02 c -3.928,-1.659 -7.539,-3.439 -10.828,-5.3 25.6,-3.536 52.223,-1.491 66.007,6.1 1.451,0.997 2.253,1.639 2.782,2.234 0.205,0.321 0.369,0.658 0.547,1.059 -0.044,-0.177 -0.089,-0.353 -0.133,-0.529"
             style="fill:#164194;fill-opacity:1;fill-rule:nonzero;stroke:none"
             id="path70"
             inkscape:connector-curvature="0" /></g><g
           id="g72"
           transform="translate(136.538,219.5583)"><path
             d="M 0,0 C 0.171,-0.062 0.63,0.848 0.802,0.786 7.853,7.684 17.169,13.654 27.3,18.538 13.196,20.669 1.753,24.452 -6.615,29.322 -13.134,24.459 -18.629,19.144 -22.516,13.493 -16.596,8.416 -8.987,3.271 0,0"
             style="fill:#164194;fill-opacity:1;fill-rule:nonzero;stroke:none"
             id="path74"
             inkscape:connector-curvature="0" /></g><g
           id="g76"
           transform="translate(105.3328,246.7462)"><path
             d="M 0,0 C 2.693,5.521 7.056,11.215 12.17,16.01 9.61,21.183 9.418,26.778 11.831,32.476 7.643,28.332 4.141,23.714 1.646,18.629 1.491,18.274 1.342,17.927 1.199,17.586 0.749,16.376 0.263,14.926 -0.009,13.769 -1.129,8.999 -1.21,4.079 0,0"
             style="fill:#164194;fill-opacity:1;fill-rule:nonzero;stroke:none"
             id="path78"
             inkscape:connector-curvature="0" /></g><g
           id="g80"
           transform="translate(146.9585,192.3477)"><path
             d="m 0,0 c -7.252,1.809 -14.165,4.254 -20.313,7.435 -6.973,3.607 -12.96,8.163 -17.335,13.818 -3.307,4.276 -5.695,9.179 -6.889,14.776 l -0.018,0.117 c -0.242,1.741 -0.473,3.992 -0.61,5.885 -0.019,0.442 -0.033,0.919 -0.046,1.448 -0.03,1.252 -0.045,2.808 -0.067,4.973 0,0.002 0,0.004 0,0.006 0.049,1.255 0.092,2.209 0.151,3.072 0.072,0.87 0.162,1.74 0.254,2.553 0.047,0.364 0.101,0.748 0.164,1.166 0.188,1.26 0.451,2.833 0.833,5.106 0.007,0.04 0.013,0.078 0.021,0.12 0.266,1.214 0.478,2.152 0.688,2.993 0.26,0.962 0.543,1.928 0.8,2.807 0.032,0.103 0.066,0.207 0.101,0.312 0.407,1.249 0.943,2.758 1.752,5.031 0.045,0.127 0.09,0.253 0.137,0.385 l 0.137,0.341 c -0.073,-0.192 -0.148,-0.397 -0.225,-0.606 -0.441,-1.21 -0.918,-2.661 -1.184,-3.818 -1.099,-4.77 -0.947,-9.194 0.24,-13.273 1.582,-5.433 5.005,-10.253 9.775,-14.463 5.928,-5.229 13.934,-9.514 23.069,-12.857 8.96,-3.28 19.004,-5.653 29.237,-7.123 25.701,-3.69 52.586,-1.68 66.438,5.989 2.71,1.873 2.47,2.553 3.093,3.961 -0.092,-0.367 0.467,-1.308 -0.534,-4.346 -0.468,-1.421 -1.398,-4.318 -1.435,-4.426 -0.287,-0.722 -0.539,-1.347 -0.771,-1.91 -0.306,-0.687 -0.636,-1.418 -0.988,-2.175 -0.38,-0.819 -0.782,-1.661 -1.196,-2.496 -0.537,-1.016 -1.196,-2.214 -2.096,-3.848 -0.09,-0.163 -0.182,-0.33 -0.277,-0.501 C 82.755,10.21 82.596,9.959 82.432,9.703 81.995,9.022 81.511,8.294 81.02,7.57 80.624,6.987 80.229,6.41 79.849,5.859 79.612,5.52 79.377,5.188 79.15,4.87 79.094,4.792 79.04,4.718 78.986,4.642 L 78.855,4.495 C 78.765,4.361 78.675,4.224 78.586,4.091 72.243,-1.595 50.061,-5.391 26.177,-3.907 17.448,-3.365 8.493,-2.119 0,0"
             style="fill:#008bd2;fill-opacity:1;fill-rule:nonzero;stroke:none"
             id="path82"
             inkscape:connector-curvature="0" /></g><g
           id="g84"
           transform="translate(229.5152,272.7649)"><path
             d="M 0,0 C -0.016,0.044 -0.032,0.087 -0.047,0.128 -0.086,0.178 -0.128,0.232 -0.172,0.288 -0.114,0.191 -0.057,0.096 0,0"
             style="fill:#164194;fill-opacity:1;fill-rule:nonzero;stroke:none"
             id="path86"
             inkscape:connector-curvature="0" /></g><g
           id="g88"
           transform="translate(220.7477,265.1368)"><path
             d="M 0,0 C 9.614,4.028 8.95,6.783 8.49,8.044 7.984,8.645 7.045,9.481 4.467,10.204 -7.922,13.676 -34.276,8.775 -58.73,-1.499 -40.385,-6.003 -16.815,-6.211 0,0"
             style="fill:#164194;fill-opacity:1;fill-rule:nonzero;stroke:none"
             id="path90"
             inkscape:connector-curvature="0" /></g><g
           id="g92"
           transform="translate(176.7524,298.9168)"><path
             d="m 0,0 c 2.051,0.362 5.869,1.036 8.921,2.559 1.895,0.946 4.995,2.951 0.569,5.042 0.933,-0.274 1.505,-0.447 2.584,-0.798 0.712,-0.23 1.418,-0.465 2.083,-0.69 0.588,-0.213 1.18,-0.432 1.747,-0.648 0.202,-0.077 0.399,-0.152 0.593,-0.227 1.575,-0.634 2.643,-1.095 3.785,-1.644 1.071,-0.516 2.214,-1.111 3.922,-2.013 0.271,-0.143 0.555,-0.293 0.856,-0.452 0.795,-0.459 1.421,-0.825 1.978,-1.161 0.649,-0.398 1.308,-0.821 1.977,-1.266 0.167,-0.114 0.339,-0.233 0.519,-0.359 1.008,-0.706 2.267,-1.632 4.3,-3.129 2.753,-2.652 -0.313,-5.552 -9.114,-8.621 -10.748,-3.72 -19.394,-5.03 -25.651,2.787 C -2.637,-8.489 -7.07,-1.532 0,0"
             style="fill:#008bd2;fill-opacity:1;fill-rule:nonzero;stroke:none"
             id="path94"
             inkscape:connector-curvature="0" /></g><g
           id="g96"
           transform="translate(131.0539,247.703)"><path
             d="m 0,0 c -6.868,3.997 -11.664,8.725 -14.163,13.872 -2.511,5.173 -2.699,10.767 -0.332,16.466 2.095,5.045 6.188,10.17 12.45,15.156 0.061,0.045 0.123,0.091 0.184,0.136 -0.039,-0.027 -0.082,-0.057 -0.121,-0.084 0.044,0.03 0.092,0.064 0.137,0.096 0.002,10e-4 0.003,0.003 0.005,0.004 0.796,0.568 1.714,1.201 2.643,1.828 0.981,0.666 1.969,1.321 2.827,1.867 0.003,0.002 0.006,0.003 0.01,0.006 0.068,0.041 0.134,0.08 0.2,0.12 0.13,0.078 0.253,0.152 0.371,0.222 0.365,0.218 0.773,0.457 1.189,0.695 0.796,0.452 1.556,0.846 3.038,1.596 0.3,0.156 0.594,0.308 0.871,0.45 0.136,0.065 0.278,0.134 0.432,0.208 0.014,0.006 0.027,0.012 0.042,0.019 0.018,0.009 0.035,0.017 0.053,0.026 1.066,0.505 1.573,0.738 2.548,1.14 0.034,0.015 0.068,0.03 0.101,0.044 0.728,0.297 1.631,0.673 2.337,0.942 0.014,0.005 0.029,0.011 0.043,0.016 0.036,0.014 0.077,0.029 0.114,0.043 0.012,0.005 0.021,0.008 0.033,0.013 0.44,0.166 0.763,0.287 1.065,0.396 0.292,0.103 0.612,0.213 1.027,0.354 0.09,0.03 0.187,0.061 0.289,0.094 0.137,0.048 0.263,0.092 0.379,0.131 0.531,0.175 1.24,0.398 1.999,0.624 0.008,0.002 0.015,0.004 0.022,0.006 0.546,0.162 1.1,0.32 1.613,0.458 0.165,0.043 0.346,0.088 0.551,0.14 0.067,0.018 0.13,0.035 0.192,0.051 0.799,0.202 1.476,0.364 2.041,0.494 0.01,0.002 0.019,0.003 0.029,0.005 0.024,0.006 0.049,0.012 0.073,0.017 0.865,0.191 1.236,0.272 1.997,0.411 0.063,0.013 0.124,0.025 0.182,0.037 0.624,0.11 1.396,0.253 1.995,0.347 0,0 0.002,0.001 0.003,0.001 l 0.004,10e-4 c 0.126,0.02 0.263,0.04 0.4,0.06 0.242,0.036 0.479,0.07 0.714,0.102 0.094,0.013 0.185,0.026 0.278,0.038 5.391,0.696 8.918,0.175 10.072,-0.706 0.499,-0.381 0.624,-0.864 0.383,-1.386 C 39.658,55.119 36.213,53.383 30.016,52.633 29.822,53.229 29.364,53.682 28.702,54 24.456,56.038 11.773,52.501 5.86,44.986 5.222,44.174 4.659,43.316 4.198,42.413 1.604,37.337 2.673,32.693 6.275,28.674 c 4.588,-5.119 13.293,-9.218 23.806,-11.892 18.455,-4.695 42.468,-4.996 59.525,1.304 9.943,4.166 8.214,6.9 7.765,8.098 1.589,-1.074 2.176,-2.471 2.827,-3.688 0.099,-0.186 0.198,-0.372 0.299,-0.565 0.019,-0.037 0.038,-0.073 0.057,-0.109 0.142,-0.274 0.286,-0.553 0.431,-0.841 1.266,-2.504 2.652,-5.85 3.64,-8.719 0.275,-0.83 0.525,-1.641 0.755,-2.438 0.021,-0.075 0.043,-0.151 0.065,-0.227 0.323,-1.137 0.605,-2.243 0.858,-3.321 0.512,-2.189 0.905,-4.265 1.283,-6.266 l 0.146,-1.042 c -0.119,-2.735 -3.192,-4.393 -6.446,-6.147 -0.075,0.308 -0.158,0.614 -0.238,0.921 0.073,-0.298 0.151,-0.603 0.238,-0.921 -17.006,-7.712 -44.081,-6.372 -61.717,-4.358 -1.931,0.221 -3.813,0.474 -5.654,0.753 C 19.811,-8.654 8.368,-4.871 0,0"
             style="fill:#008bd2;fill-opacity:1;fill-rule:nonzero;stroke:none"
             id="path98"
             inkscape:connector-curvature="0" /></g></g></g></g></svg>